<svg width="28" height="37" viewBox="0 0 28 37" fill="none" xmlns="http://www.w3.org/2000/svg">
<path fill-rule="evenodd" clip-rule="evenodd" d="M20.8675 17.147C21.0867 16.5925 21.2054 15.9991 21.2054 15.3822C21.2054 14.9577 21.1492 14.5443 21.0426 14.147H22.0153C25.1952 14.147 27.7729 16.7248 27.7729 19.9046V31.2425C27.7729 34.4223 25.1952 37.0001 22.0153 37.0001H6.53062C3.35075 37.0001 0.772949 34.4223 0.772949 31.2424V19.9046C0.772949 16.7248 3.35075 14.147 6.53062 14.147H8.23298C8.12648 14.5443 8.07025 14.9577 8.07025 15.3822C8.07025 15.9991 8.18896 16.5925 8.4081 17.147H6.53062C5.0076 17.147 3.77295 18.3816 3.77295 19.9046V31.2424C3.77295 32.7655 5.0076 34.0001 6.53062 34.0001H22.0153C23.5383 34.0001 24.7729 32.7655 24.7729 31.2425V19.9046C24.7729 18.3816 23.5383 17.147 22.0153 17.147H20.8675Z" fill="white"/>
<path d="M15.7658 1.23668C15.3442 0.815088 14.6607 0.815088 14.2391 1.23668L7.36878 8.10698C6.94718 8.52858 6.94718 9.21212 7.36878 9.63371C7.79037 10.0553 8.47392 10.0553 8.89551 9.63371L15.0024 3.52678L21.1094 9.63371C21.531 10.0553 22.2145 10.0553 22.6361 9.63371C23.0577 9.21212 23.0577 8.52858 22.6361 8.10698L15.7658 1.23668ZM16.082 22.723V2.00005H13.9229V22.723H16.082Z" fill="white"/>
</svg>
