<svg width="60" height="60" viewBox="0 0 36 39" fill="none" xmlns="http://www.w3.org/2000/svg">
<path fill-rule="evenodd" clip-rule="evenodd" d="M22.6477 25.8607C25.8818 24.342 28.1011 21.2126 28.1011 17.5987C28.1011 12.4954 23.6756 8.3584 18.2163 8.3584C12.7571 8.3584 8.33154 12.4954 8.33154 17.5987C8.33154 21.2544 10.6025 24.4143 13.8976 25.9128V27.8455H22.6477V25.8607Z" fill="black"/>
<path d="M14.6258 33.4547C14.153 32.8255 13.8975 32.0588 13.8975 31.2694V30.7842C13.8975 30.4848 13.9733 30.19 14.1179 29.927C14.4314 29.3568 15.0307 29.0019 15.6797 29.0019L20.8615 29.0019C21.5138 29.0019 22.1128 29.3555 22.4264 29.9257C22.5715 30.1895 22.6475 30.4861 22.6475 30.788V31.3425C22.6475 32.0558 22.455 32.7571 22.0902 33.3723L22.0451 33.4484C20.485 36.0791 16.7626 36.2981 14.9354 33.8666L14.6258 33.4547Z" fill="black"/>
<rect width="2.38759" height="5.21352" rx="1.19379" transform="matrix(0.242611 0.970124 -0.978033 0.208448 35.1938 13.4963)" fill="black"/>
<rect width="2.38339" height="5.22145" rx="1.19169" transform="matrix(-0.187611 0.982244 0.987009 0.160665 1.22021 13.4963)" fill="black"/>
<rect width="2.46429" height="5.06398" rx="1.23214" transform="matrix(0.685542 0.728033 -0.779918 0.625882 30.0571 4.83081)" fill="black"/>
<rect width="2.46429" height="5.06398" rx="1.23214" transform="matrix(-0.685542 0.728033 0.779918 0.625882 6.28369 4.83081)" fill="black"/>
<rect x="16.9692" width="2.57503" height="4.83105" rx="1.28751" fill="black"/>
</svg>
