<svg width="29" height="34" viewBox="0 0 29 34" fill="none" xmlns="http://www.w3.org/2000/svg">
<path d="M22.2615 26.0063C22.2615 30.4211 17.9221 34 12.5692 34C7.21633 34 2.87695 30.4211 2.87695 26.0063C2.87695 21.5915 7.21633 26.0063 12.5692 26.0063C17.9221 26.0063 22.2615 21.5915 22.2615 26.0063Z" fill="black"/>
<path fill-rule="evenodd" clip-rule="evenodd" d="M12.5037 23.9845C19.2585 23.9845 24.7344 18.6154 24.7344 11.9923C24.7344 11.4139 24.6926 10.8451 24.6119 10.2887L24.0232 10.5023C23.5417 10.677 23.1605 11.0533 22.9796 11.5326L21.915 14.3534C21.3437 15.8675 19.2019 15.8675 18.6306 14.3534L17.566 11.5326C17.3851 11.0533 17.0039 10.677 16.5224 10.5023L13.7438 9.49413C12.2016 8.9346 12.2016 6.75356 13.7438 6.19403L16.5224 5.18589C17.0039 5.01118 17.3851 4.63485 17.566 4.1556L18.5446 1.56249C16.7625 0.568031 14.7008 0 12.5037 0C5.74883 0 0.272949 5.36912 0.272949 11.9923C0.272949 18.6154 5.74883 23.9845 12.5037 23.9845Z" fill="black"/>
<path d="M19.811 2.24378C20.1057 1.4631 21.21 1.4631 21.5046 2.24378L22.5677 5.06083C22.661 5.30794 22.8575 5.50199 23.1058 5.59207L25.9282 6.61608C26.7234 6.90459 26.7234 8.02919 25.9282 8.3177L23.1058 9.3417C22.8575 9.43178 22.661 9.62583 22.5677 9.87294L21.5046 12.69C21.21 13.4707 20.1057 13.4707 19.811 12.69L18.7479 9.87294C18.6547 9.62583 18.4581 9.43178 18.2098 9.3417L15.3875 8.3177C14.5923 8.02919 14.5923 6.90459 15.3875 6.61608L18.2098 5.59207C18.4581 5.50199 18.6547 5.30794 18.7479 5.06083L19.811 2.24378Z" fill="black"/>
</svg>
