<svg width="844" height="305" viewBox="0 0 844 305" fill="none" xmlns="http://www.w3.org/2000/svg">
<path d="M81.955 237.119C65.3264 237.119 50.8574 234.095 38.548 228.049C26.2386 222.002 16.7365 213.58 10.0419 202.782C3.34731 191.984 0 179.459 0 165.206H28.5061C28.5061 174.06 30.5577 182.266 34.6608 189.825C38.764 197.167 44.7027 203.106 52.4771 207.641C60.4675 211.96 70.2934 214.12 81.955 214.12C97.2878 214.12 109.165 210.448 117.588 203.106C126.01 195.763 130.221 186.585 130.221 175.572C130.221 166.501 128.277 159.267 124.39 153.868C120.503 148.253 115.212 143.718 108.517 140.263C102.039 136.808 94.4804 133.784 85.8422 131.193C77.4199 128.601 68.5658 125.686 59.2797 122.447C41.7873 116.4 28.83 108.949 20.4078 100.095C11.9855 91.0251 7.77439 79.2556 7.77439 64.7866C7.55843 52.6931 10.3658 42.0033 16.1966 32.7172C22.0274 23.2152 30.2337 15.8727 40.8155 10.6898C51.6133 5.2909 64.3546 2.59147 79.0396 2.59147C93.5086 2.59147 106.034 5.2909 116.616 10.6898C127.414 16.0887 135.728 23.5391 141.559 33.0411C147.605 42.5432 150.737 53.3409 150.953 65.4344H122.447C122.447 59.1717 120.827 53.017 117.588 46.9702C114.348 40.7076 109.381 35.6326 102.687 31.7454C96.208 27.8582 88.0017 25.9146 78.0678 25.9146C65.7584 25.6987 55.6085 28.83 47.6181 35.3087C39.8437 41.7873 35.9565 50.7495 35.9565 62.1951C35.9565 71.9131 38.656 79.3635 44.0549 84.5465C49.6697 89.7294 57.4441 94.0485 67.378 97.5038C77.312 100.743 88.7576 104.522 101.715 108.841C112.513 112.729 122.231 117.264 130.869 122.447C139.507 127.63 146.202 134.324 150.953 142.53C155.92 150.737 158.403 161.211 158.403 173.952C158.403 184.75 155.596 195.008 149.981 204.726C144.366 214.228 135.836 222.002 124.39 228.049C113.161 234.095 99.0155 237.119 81.955 237.119Z" fill="black"/>
<path d="M195.372 304.497V72.5609H219.991L222.582 99.1234C227.765 91.349 235.108 84.3305 244.61 78.0678C254.328 71.8051 266.637 68.6738 281.538 68.6738C297.519 68.6738 311.448 72.345 323.325 79.6875C335.203 87.0299 344.381 97.0719 350.86 109.813C357.554 122.555 360.902 137.024 360.902 153.22C360.902 169.417 357.554 183.886 350.86 196.627C344.381 209.153 335.095 219.087 323.001 226.429C311.124 233.556 297.195 237.119 281.214 237.119C268.041 237.119 256.271 234.419 245.905 229.02C235.756 223.622 227.981 216.063 222.582 206.345V304.497H195.372ZM278.299 213.472C289.096 213.472 298.599 210.988 306.805 206.021C315.011 200.838 321.49 193.712 326.241 184.642C330.992 175.572 333.367 164.99 333.367 152.896C333.367 140.803 330.992 130.221 326.241 121.151C321.49 112.081 315.011 105.062 306.805 100.095C298.599 94.9123 289.096 92.3208 278.299 92.3208C267.501 92.3208 257.999 94.9123 249.793 100.095C241.586 105.062 235.108 112.081 230.357 121.151C225.606 130.221 223.23 140.803 223.23 152.896C223.23 164.99 225.606 175.572 230.357 184.642C235.108 193.712 241.586 200.838 249.793 206.021C257.999 210.988 267.501 213.472 278.299 213.472Z" fill="black"/>
<path d="M590.481 233.232V72.5609H615.1L617.368 103.335C622.335 92.7528 629.893 84.3305 640.043 78.0678C650.193 71.8051 662.718 68.6738 677.619 68.6738V97.1798H670.169C660.667 97.1798 651.921 98.9075 643.93 102.363C635.94 105.602 629.569 111.217 624.818 119.207C620.067 127.198 617.692 138.211 617.692 152.248V233.232H590.481Z" fill="black"/>
<path d="M708.16 233.232V0H735.37V140.263L801.129 72.5609H834.494L763.229 145.122L843.564 233.232H808.903L735.37 149.981V233.232H708.16Z" fill="black"/>
<path d="M471.746 229.02C481.087 229.02 490.015 226.795 498.214 222.741C525.164 209.419 544.246 176.353 544.246 137.671C544.246 116.59 538.579 97.1772 529.06 81.7189L498.214 112.312L467.143 81.7189L440.675 112.312L414.433 81.7189C404.913 97.1772 399.246 116.59 399.246 137.671C399.246 174.111 416.181 205.568 440.675 220.23C450.092 225.866 460.627 229.02 471.746 229.02Z" fill="black"/>
</svg>
